<svg width="205" height="204" viewBox="0 0 205 204" fill="none" xmlns="http://www.w3.org/2000/svg">
<path d="M123.17 0.528888C121.321 0.809066 116.278 1.48149 111.963 2.04184C107.649 2.6022 103.642 3.16256 103.054 3.33067C101.737 3.66688 100.196 5.01173 99.4113 6.49668C98.8229 7.58937 98.7949 8.06568 98.7109 15.1542C98.6548 20.6457 98.5428 22.691 98.2906 22.775C98.0945 22.803 96.8337 23.0552 95.4888 23.3074C89.8292 24.372 83.4692 27.0337 78.9023 30.2277C74.2513 33.5338 69.4603 38.8852 66.4344 44.1526C64.9214 46.7863 62.9041 51.7174 62.4839 53.7907C62.1196 55.6119 62.3438 55.4998 58.4493 56.0882C50.4362 57.349 41.6666 60.2068 37.2678 63.0366C35.4467 64.2133 33.2613 66.4267 32.6449 67.7156C31.3281 70.4613 32.0005 72.8989 34.9144 75.7567C36.5674 77.4097 37.492 78.0261 40.4058 79.455C46.4577 82.4809 58.2812 85.3948 69.6564 86.6836C71.9819 86.9358 73.9992 87.3 74.1673 87.4681C74.3354 87.6362 74.6156 88.5888 74.7837 89.5975C77.0531 103.046 79.4346 115.962 79.8549 116.915C80.6114 118.652 82.1524 120.193 84.0015 121.145L85.6266 121.958H102.297H118.968L120.593 121.145C122.386 120.221 123.815 118.82 124.711 117.027C125.272 115.962 127.653 102.57 129.334 90.9983C129.614 89.2332 129.867 87.6362 129.895 87.4681C129.951 87.3 131.8 86.9638 134.153 86.6836C144.66 85.4508 156.147 82.7891 162.563 80.0994C168.475 77.6058 172.37 73.6553 172.342 70.1531C172.314 67.2953 168.755 63.625 163.796 61.3275C158.893 59.03 150.796 56.7886 143.988 55.836C142.699 55.6399 142.643 55.5839 142.335 54.4631C141.634 51.7734 140.597 49.0557 139.253 46.366C133.229 34.4024 122.218 25.829 109.442 23.2233L106.92 22.719L106.836 16.7232L106.78 10.6993L110.198 10.3631C112.103 10.167 113.953 9.97088 114.345 9.88682C114.737 9.83079 117.819 9.43854 121.209 9.04629C127.625 8.28981 128.886 7.98162 129.586 6.8609C130.707 5.17984 130.343 1.56554 128.97 0.500863C128.158 -0.171564 127.597 -0.171557 123.17 0.528888ZM91.5663 34.1502C94.4241 35.5231 95.1806 38.9973 93.1353 41.4349C91.7064 43.144 89.6331 43.5082 87.5038 42.4715C86.383 41.9392 86.1869 41.9112 85.5705 42.2754C83.4412 43.5922 80.2191 47.6548 79.5467 49.8682C79.0424 51.5773 78.1738 52.3338 76.7169 52.3338C75.316 52.3338 74.3914 51.5773 74.1112 50.1764C73.5789 47.4587 78.8182 39.9779 83.3571 37.0081C84.4498 36.3076 85.6546 35.4391 86.0468 35.1028C87.868 33.4778 89.5771 33.1976 91.5663 34.1502ZM135.078 58.89C135.078 61.1594 135.022 61.5516 134.602 61.6917C133.817 61.9439 127.429 62.6163 120.789 63.1767C115.998 63.5689 111.963 63.681 101.036 63.653C86.9994 63.653 84.2537 63.4849 72.122 62.084L69.2362 61.7478V59.002V56.2563H102.157H135.078V58.89ZM57.4687 64.6896C58.7855 67.8556 67.7232 69.8169 86.7193 71.1057C93.3875 71.554 112.103 71.4699 119.528 70.9656C130.931 70.1811 140.934 68.472 144.296 66.791C145.697 66.0625 146.845 64.9138 146.845 64.2133C146.845 63.9892 147.098 63.8211 147.434 63.8211C149.003 63.8211 158.445 66.7629 160.91 68.0238C162.031 68.6121 163.096 69.7889 163.096 70.4333C163.096 71.6941 159.79 73.6553 155.083 75.1123C147.686 77.4377 132.444 79.7072 118.127 80.6318C112.468 80.996 94.256 80.996 87.4197 80.6318C67.5271 79.5951 50.8285 76.6252 43.6839 72.8708C39.3412 70.6014 40.0136 69.0884 46.4016 66.7349C49.0914 65.7543 55.7036 63.8771 56.6562 63.8491C56.9083 63.8211 57.2726 64.2133 57.4687 64.6896ZM99.2152 88.6449C106.5 88.7569 113.14 88.7009 116.306 88.5048C119.136 88.3647 121.489 88.2526 121.517 88.2806C121.545 88.3086 121.349 89.6535 121.069 91.2785C120.313 95.6213 118.351 107.865 117.959 110.751C117.763 112.236 117.427 113.469 117.175 113.749C116.754 114.197 115.578 114.225 102.325 114.253C90.7538 114.281 87.868 114.225 87.5598 113.917C87.2516 113.581 86.1309 107.641 83.7774 93.8281C83.3291 91.1384 82.9649 88.7569 82.9649 88.5328C82.9649 88.1966 83.3291 88.1405 85.1503 88.3086C86.327 88.3927 92.659 88.5608 99.2152 88.6449Z" fill="#00FF85"/>
<path d="M100.336 103.382C98.7669 104.447 98.0104 105.764 98.1785 107.221C98.6268 111.283 104.146 112.292 106.024 108.65C107.761 105.287 103.446 101.281 100.336 103.382Z" fill="#00FF85"/>
<path d="M36.6612 133.632C36.1205 133.97 35.3434 134.578 34.9717 135.017C34.3297 135.727 34.2959 136.335 34.1946 152.554C34.127 163.366 34.2283 169.752 34.4311 170.496C34.6338 171.172 35.242 172.151 35.8164 172.692L36.8639 173.706L45.2774 173.807C54.5694 173.908 55.0086 173.841 56.4278 171.847C57.5428 170.293 57.6442 168.536 56.7994 166.813C55.5492 164.414 54.6369 164.076 49.0955 164.076H44.2637V150.628C44.2637 138.126 44.1961 137.112 43.5879 135.794C43.2162 134.95 42.4729 134.071 41.8309 133.666C40.4117 132.787 38.0127 132.787 36.6612 133.632Z" fill="white"/>
<path d="M77.4783 133.395C76.8363 133.564 76.1605 134.071 75.8564 134.612C75.2145 135.727 71.0922 144.411 67.5781 152.081C66.1252 155.223 63.9289 159.954 62.6787 162.555C60.0432 167.995 59.6039 170.192 60.7527 172.05C61.9016 173.841 64.3682 174.652 66.4631 173.841C67.9836 173.267 68.8621 172.253 70.5516 169.043L72.1059 166.069L78.4582 166.137L84.8105 166.205L86.3986 169.246C87.2771 170.901 88.426 172.625 88.9666 173.064C91.8049 175.429 96.4678 173.706 96.8732 170.09C97.0084 168.806 96.7381 168.029 94.6094 163.569C93.2916 160.765 89.7437 153.263 86.7703 146.843C83.7631 140.424 81.1275 134.848 80.8572 134.443C80.2152 133.463 78.8299 133.024 77.4783 133.395ZM80.418 156.135C80.418 156.203 79.4381 156.304 78.2217 156.372C77.0053 156.406 76.0254 156.44 76.0254 156.406C76.0254 156.304 77.6135 153.027 78.0189 152.284C78.4582 151.473 78.492 151.54 79.4381 153.736C79.9787 155.02 80.418 156.068 80.418 156.135Z" fill="white"/>
<path d="M103.834 133.328C103.428 133.497 102.82 134.037 102.482 134.578C101.908 135.423 101.874 136.673 101.874 152.959V170.394L102.786 171.746C104.341 174.111 106.74 174.753 109.375 173.571C111.842 172.422 111.977 171.915 112.18 162.082L112.349 153.534L118.802 160.393C122.35 164.177 126.709 168.773 128.466 170.563C131.541 173.773 131.676 173.875 133.163 173.875C133.974 173.875 135.021 173.638 135.427 173.334C137.184 172.118 137.184 172.151 137.184 153.872C137.184 138.362 137.116 136.774 136.575 135.693C134.92 132.416 130.189 132.044 128.027 135.051C127.216 136.2 127.216 136.301 127.114 145.289L127.013 154.378L125.966 153.399C125.425 152.858 120.999 148.229 116.167 143.059C106.706 132.99 106.03 132.449 103.834 133.328Z" fill="white"/>
<path d="M1.8584 134.071C0 135.524 0 135.625 0 153.432C0 171.374 0 171.273 1.99355 172.962C4.05469 174.686 7.06191 174.483 8.9541 172.523C9.96777 171.476 9.96777 171.442 10.1367 166.678L10.3057 161.88L14.3604 161.711C17.9082 161.542 18.6854 161.407 20.5438 160.562C24.666 158.67 27.5043 155.561 28.7207 151.675C31.1535 143.735 26.2203 135.457 17.9758 133.7C16.9959 133.497 13.1777 133.328 9.49473 133.328C3.14238 133.328 2.73691 133.362 1.8584 134.071ZM15.3402 143.465C17.1986 143.87 18.3475 144.816 18.8881 146.404C19.3273 147.654 19.3273 147.857 18.6178 149.276C17.7055 151.236 16.6918 151.675 13.0764 151.709L10.3057 151.743L10.2043 147.418L10.1029 143.127H12.0627C13.1439 143.127 14.6307 143.296 15.3402 143.465Z" fill="white"/>
<path d="M145.698 134.004C143.57 135.321 143.57 135.288 143.671 153.872L143.772 170.665L144.55 171.78C146.036 173.807 146.307 173.875 156.68 173.875C166.952 173.875 167.594 173.773 169.047 171.814C170.06 170.428 169.925 167.759 168.81 166.272C167.256 164.245 166.614 164.076 159.991 164.076H154.078V161.204V158.332H158.978C164.249 158.332 165.026 158.163 166.546 156.507C167.155 155.865 167.425 155.122 167.526 153.838C167.661 152.148 167.594 151.912 166.546 150.763C165.938 150.053 165.06 149.344 164.587 149.141C164.114 148.938 161.478 148.837 158.741 148.837L153.74 148.905V146.033V143.127H159.822C165.33 143.127 166.073 143.059 167.29 142.417C170.669 140.728 170.567 135.524 167.155 133.902C166.141 133.395 164.654 133.328 156.376 133.328C147.388 133.328 146.746 133.362 145.698 134.004Z" fill="white"/>
<path d="M175.129 133.835C171.953 135.22 171.851 140.322 174.926 142.35C175.636 142.823 176.751 142.992 179.758 143.127L183.644 143.296L183.813 157.149C183.981 169.786 184.049 171.104 184.59 171.949C186.583 174.99 190.706 174.888 193.071 171.712C193.747 170.8 193.78 170.327 193.882 156.946L193.983 143.127H197.598C200.606 143.127 201.383 143.025 202.329 142.451C205.302 140.626 205.573 136.842 202.903 134.342L201.991 133.497L189.117 133.429C178.575 133.362 176.007 133.429 175.129 133.835Z" fill="white"/>
<path d="M38.1141 183.606C30.917 183.707 31.4239 182.998 31.4239 193.168V200.906L32.4037 201.987L33.3836 203.102L38.5871 203.204C44.2299 203.305 45.1084 203.102 45.8856 201.514C46.1221 201.007 46.2235 200.196 46.0883 199.723C45.7166 198.27 44.3989 197.865 40.209 197.865H36.4584L36.5598 196.919L36.6612 196.007L39.9725 195.838C42.9797 195.702 43.3852 195.601 43.9596 194.858C44.8043 193.81 44.7705 192.661 43.8582 191.783C43.2162 191.208 42.6756 191.107 39.8035 191.107H36.4922V189.924V188.742H40.5469C44.1623 188.742 44.6692 188.674 45.2774 188.066C46.5952 186.748 45.8856 183.91 44.1961 183.64C43.7569 183.572 41.02 183.538 38.1141 183.606Z" fill="#00FF85"/>
<path d="M50.2781 183.707C48.9941 184.417 49.5685 185.735 52.7109 189.485L55.7857 193.134L53.9949 195.229C51.3594 198.372 49.6699 200.771 49.6699 201.379C49.6699 202.325 50.9201 203.271 52.2041 203.271C53.5894 203.271 54.0625 202.866 56.7318 199.453C57.7117 198.203 58.624 197.189 58.793 197.189C58.9281 197.189 60.0769 198.372 61.2933 199.858C63.591 202.562 64.6047 203.271 66.0576 203.271C67.0375 203.271 68.2539 202.19 68.2539 201.311C68.2539 201.007 67.1051 199.352 65.7197 197.696C61.665 192.83 61.8678 193.371 63.3883 191.614C66.0914 188.438 67.916 185.836 67.916 185.16C67.916 184.214 67.2402 183.674 65.7873 183.437C64.8074 183.302 64.4357 183.437 63.3207 184.451C62.5773 185.093 61.3947 186.478 60.6514 187.525C59.908 188.539 59.1984 189.418 59.0633 189.418C58.9281 189.418 57.8807 188.201 56.7318 186.681C55.583 185.194 54.3666 183.842 54.0287 183.64C53.2516 183.234 51.0215 183.268 50.2781 183.707Z" fill="#00FF85"/>
<path d="M135.595 184.045C133.028 185.295 131.541 188.134 132.115 190.6C132.453 192.188 134.379 194.081 136.373 194.79C141.036 196.446 141.272 196.547 141.171 197.291C140.968 198.608 139.447 198.71 136.981 197.561C134.447 196.378 133.602 196.277 132.521 197.054C131.541 197.73 131.541 199.487 132.487 200.703C132.892 201.21 133.974 201.987 134.92 202.46C136.406 203.237 136.947 203.339 139.38 203.204C141.711 203.136 142.353 202.967 143.57 202.156C146.847 199.994 147.287 194.925 144.381 192.864C143.84 192.492 142.117 191.715 140.495 191.107C137.521 189.992 136.846 189.384 137.555 188.539C138.13 187.83 139.245 187.965 141.103 188.911C143.975 190.364 145.631 189.924 145.631 187.661C145.631 186.546 145.428 186.106 144.482 185.228C142.421 183.268 138.265 182.727 135.595 184.045Z" fill="#00FF85"/>
<path d="M155.261 183.809C152.186 185.194 150.429 188.978 151.747 191.513C152.76 193.506 154.112 194.418 157.761 195.669C160.295 196.513 161.039 197.291 159.991 198.068C159.079 198.743 157.389 198.473 155.7 197.358C154.112 196.311 152.625 196.175 151.713 197.02C150.125 198.473 151.409 201.176 154.315 202.494C157.862 204.116 161.782 203.44 164.113 200.771C165.431 199.318 165.702 198.338 165.465 196.311C165.262 194.385 163.742 192.695 161.545 191.918C158.809 190.938 156.443 189.722 156.443 189.283C156.443 188.641 157.187 188.066 157.998 188.066C158.403 188.066 159.62 188.539 160.701 189.114C162.593 190.093 162.728 190.127 163.776 189.62C166.242 188.438 165.127 185.262 161.748 183.842C160.262 183.234 156.646 183.2 155.261 183.809Z" fill="#00FF85"/>
<path d="M72.8492 184.417C72.41 185.059 72.3086 186.512 72.3086 193.405V201.616L73.1533 202.426C74.167 203.44 75.3158 203.508 76.4984 202.562C77.2756 201.953 77.377 201.649 77.377 199.69V197.527H79.7422C83.4252 197.527 85.4863 196.412 86.9393 193.641C88.257 191.073 87.615 187.492 85.4187 185.464C83.8645 184.011 82.4115 183.674 77.7486 183.674C73.5926 183.674 73.3223 183.707 72.8492 184.417ZM81.702 189.282C82.5805 189.891 82.6818 191.31 81.8709 192.188C81.4654 192.628 80.8234 192.797 79.3367 192.797H77.377V190.769V188.742H79.1678C80.2152 188.742 81.2289 188.945 81.702 189.282Z" fill="#00FF85"/>
<path d="M92.9199 184.349C92.2779 184.991 92.2441 185.464 92.2441 193.439C92.2441 200.636 92.3117 201.953 92.7848 202.393C93.4605 203.068 94.7107 203.406 95.5893 203.102C96.9746 202.663 97.3125 201.987 97.3125 199.521V197.189H98.3262C99.2047 197.189 99.6102 197.561 101.198 199.69C102.212 201.075 103.395 202.46 103.8 202.731C105.321 203.812 108.125 203.035 108.125 201.582C108.125 201.244 107.28 199.892 106.267 198.574C105.253 197.257 104.408 196.04 104.408 195.871C104.408 195.702 104.78 195.331 105.219 195.06C108.193 193.101 108.26 188.235 105.354 185.464C103.732 183.91 102.82 183.674 97.9545 183.674C94.035 183.674 93.5281 183.741 92.9199 184.349ZM101.773 189.316C102.111 189.62 102.381 190.195 102.381 190.634C102.381 191.986 101.536 192.459 99.1371 192.459H96.9746V190.837C96.9746 189.924 97.076 189.08 97.2111 188.978C97.6842 188.472 101.131 188.742 101.773 189.316Z" fill="#00FF85"/>
<path d="M113.362 184.518L112.518 185.329V192.966C112.518 200.94 112.72 202.224 114.038 202.731C114.342 202.832 117.079 202.933 120.12 202.933C124.851 202.933 125.729 202.866 126.304 202.325C127.452 201.379 127.554 200.129 126.608 199.014C125.763 198.034 125.695 198.034 121.674 197.933L117.586 197.797V196.817C117.586 195.871 117.62 195.838 119.377 195.838C122.992 195.838 124.58 195.466 124.986 194.587C125.56 193.371 125.425 192.661 124.58 191.85C123.904 191.208 123.398 191.107 120.695 191.107H117.586V189.925V188.742H121.573C125.29 188.742 125.628 188.674 126.27 187.965C126.641 187.559 127.047 186.951 127.148 186.613C127.419 185.87 126.608 184.18 125.864 183.876C125.56 183.775 122.789 183.674 119.748 183.674C114.275 183.674 114.173 183.674 113.362 184.518Z" fill="#00FF85"/>
<path d="M189.117 191.08C183.745 191.249 183.745 191.249 182.934 192.195C181.819 193.479 181.819 195.439 182.934 196.723L183.745 197.669L189.59 197.77C192.8 197.838 195.74 197.804 196.146 197.702C196.551 197.601 197.294 197.094 197.767 196.621C199.558 194.83 198.612 191.823 196.044 191.08C195.368 190.911 194.726 190.776 194.625 190.809C194.524 190.843 192.057 190.945 189.117 191.08Z" fill="white"/>
<path d="M4.76425 189.958C3.31132 191.175 3.31132 192.999 4.69667 194.554L5.67655 195.669L10.9814 195.77C16.6242 195.905 17.8406 195.669 18.7529 194.351C19.6314 193.134 19.3949 191.175 18.2799 190.06L17.3 189.08H11.5559C5.8455 189.08 5.77792 189.08 4.76425 189.958Z" fill="white"/>
</svg>
